<svg version="1.2" xmlns="http://www.w3.org/2000/svg" viewBox="0 0 284 284" width="284" height="284">
	<title>logo-svg</title>
	<style>
		.s0 { fill: #000000 } 
		.s1 { fill: #ffffff } 
	</style>
	<path id="Layer 1" class="s0" d="m142 233c-32.1 0-58-25.9-58-58 0-32.1 25.9-58 58-58 32.1 0 58 25.9 58 58 0 32.1-25.9 58-58 58zm-44-95l44-88 44 88z"/>
	<path id="Layer 1 copy 4" class="s1" d="m142.3 199.5c-7.3 0-13.2-5.9-13.2-13.2 0-7.3 5.9-13.2 13.1-13.2 7.3 0 13.2 5.9 13.2 13.2 0 7.3-5.9 13.2-13.2 13.2zm-10-21.6l10-20 10 20zm10-60.9c7.3 0 13.2 5.9 13.2 13.2 0 7.3-5.9 13.2-13.2 13.2-7.2 0-13.1-5.9-13.1-13.2 0-7.3 5.9-13.2 13.1-13.2zm10 21.6l-10 20-10-20zm-51.2 19.6c0-7.2 5.9-13.1 13.2-13.1 7.3 0 13.2 5.9 13.2 13.2 0 7.2-5.9 13.1-13.2 13.1-7.3 0-13.2-5.9-13.2-13.2zm21.6-10l20 10-20 10zm60.9 10c0 7.3-5.9 13.2-13.2 13.2-7.3 0-13.2-5.9-13.2-13.2 0-7.2 5.9-13.1 13.2-13.1 7.3 0 13.2 5.9 13.2 13.1zm-21.6 10l-20-10 20-10z"/>
</svg>